HIERARCHY
ROOT Hips
{
	OFFSET -0.001795 -0.223333 0.028219
	CHANNELS 6 Xposition Yposition Zposition Zrotation Yrotation Xrotation 
	JOINT LeftUpLeg
	{
		OFFSET 0.069520 -0.091406 -0.006815
		CHANNELS 3 Zrotation Yrotation Xrotation
		JOINT LeftLeg
		{
			OFFSET 0.034277 -0.375199 -0.004496
			CHANNELS 3 Zrotation Yrotation Xrotation
			JOINT LeftFoot
			{
				OFFSET -0.013596 -0.397961 -0.043693
				CHANNELS 3 Zrotation Yrotation Xrotation
				JOINT LeftToe
				{
					OFFSET 0.026358 -0.055791 0.119288
					CHANNELS 3 Zrotation Yrotation Xrotation
					End Site
					{
						OFFSET 0.000000 0.000000 0.000000
					}
				}
			}
		}
	}
	JOINT RightUpLeg
	{
		OFFSET -0.067670 -0.090522 -0.004320
		CHANNELS 3 Zrotation Yrotation Xrotation
		JOINT RightLeg
		{
			OFFSET -0.038290 -0.382569 -0.008850
			CHANNELS 3 Zrotation Yrotation Xrotation
			JOINT RightFoot
			{
				OFFSET 0.015774 -0.398415 -0.042312
				CHANNELS 3 Zrotation Yrotation Xrotation
				JOINT RightToe
				{
					OFFSET -0.025372 -0.048144 0.123348
					CHANNELS 3 Zrotation Yrotation Xrotation
					End Site
					{
						OFFSET 0.000000 0.000000 0.000000
					}
				}
			}
		}
	}
	JOINT Spine
	{
		OFFSET -0.002533 0.108963 -0.026696
		CHANNELS 3 Zrotation Yrotation Xrotation
		JOINT Spine1
		{
			OFFSET 0.005487 0.135180 0.001092
			CHANNELS 3 Zrotation Yrotation Xrotation
			JOINT Spine2
			{
				OFFSET 0.001457 0.052922 0.025425
				CHANNELS 3 Zrotation Yrotation Xrotation
				JOINT Neck
				{
					OFFSET -0.002778 0.213870 -0.042857
					CHANNELS 3 Zrotation Yrotation Xrotation
					JOINT Head
					{
						OFFSET 0.005152 0.064970 0.051349
						CHANNELS 3 Zrotation Yrotation Xrotation
						End Site
						{
							OFFSET 0.000000 0.000000 0.000000
						}
					}
				}
				JOINT LeftShoulder
				{
					OFFSET 0.078845 0.121749 -0.034090
					CHANNELS 3 Zrotation Yrotation Xrotation
					JOINT LeftArm
					{
						OFFSET 0.090977 0.030469 -0.008868
						CHANNELS 3 Zrotation Yrotation Xrotation
						JOINT LeftForeArm
						{
							OFFSET 0.259612 -0.012772 -0.027456
							CHANNELS 3 Zrotation Yrotation Xrotation
							JOINT LeftHand
							{
								OFFSET 0.249234 0.008986 -0.001171
								CHANNELS 3 Zrotation Yrotation Xrotation
								End Site
								{
									OFFSET 0.000000 0.000000 0.000000
								}
							}
						}
					}
				}
				JOINT RightShoulder
				{
					OFFSET -0.081759 0.118833 -0.038615
					CHANNELS 3 Zrotation Yrotation Xrotation
					JOINT RightArm
					{
						OFFSET -0.096012 0.032551 -0.009143
						CHANNELS 3 Zrotation Yrotation Xrotation
						JOINT RightForeArm
						{
							OFFSET -0.253742 -0.013329 -0.021401
							CHANNELS 3 Zrotation Yrotation Xrotation
							JOINT RightHand
							{
								OFFSET -0.255298 0.007772 -0.005559
								CHANNELS 3 Zrotation Yrotation Xrotation
								End Site
								{
									OFFSET 0.000000 0.000000 0.000000
								}
							}
						}
					}
				}
			}
		}
	}
}
MOTION
Frames: 17
Frame Time: 0.050000
0.921779 0.816005 -0.659297 -173.022481 58.875317 173.370075 11.881036 -14.361850 -38.796034 -15.305794 -12.495978 36.607076 10.961323 18.770819 23.271998 0.000000 0.000000 0.000000 -1.697531 -13.584968 -25.962928 -81.264595 -6.428728 72.545160 74.210390 60.912214 40.654270 0.000000 0.000000 0.000000 -11.350534 -15.784838 38.739100 -12.498553 -0.041960 -5.080402 9.536606 29.485987 15.612449 3.511389 2.161165 -12.827890 0.000000 0.000000 0.000000 -18.160509 -5.715184 -28.840488 -48.970158 25.805118 -13.173674 -47.828348 -48.477310 12.790929 0.000000 0.000000 0.000000 14.426797 -11.299621 7.414888 67.291806 -3.501450 -2.071377 4.599845 68.700527 18.310461 0.000000 0.000000 0.000000 
0.940959 0.819597 -0.693960 -172.924258 56.929783 176.086144 11.154170 -15.325348 -39.571719 -13.869213 -11.850180 33.948666 10.278276 16.263195 20.314865 0.000000 0.000000 0.000000 8.736511 -14.884880 -36.768095 -63.598273 -9.981749 62.286343 56.415881 55.729866 18.418515 0.000000 0.000000 0.000000 -11.465898 -18.216225 41.513700 -14.499569 -0.200676 -5.704041 10.931302 28.835235 15.101887 2.194912 3.898842 -14.642964 0.000000 0.000000 0.000000 -17.104128 -8.952115 -25.755704 -52.179375 21.037318 -12.150878 -46.455703 -60.864827 15.903666 0.000000 0.000000 0.000000 15.175540 -9.894975 8.576812 68.158595 -6.389992 -4.815902 7.138290 69.508537 19.993395 0.000000 0.000000 0.000000 
0.957536 0.822246 -0.729226 -173.286864 55.516198 177.129426 11.272888 -15.730748 -39.685821 -14.320087 -11.521392 32.437414 9.515270 13.256597 16.805976 0.000000 0.000000 0.000000 13.718476 -15.468964 -40.843742 -55.016854 -10.949973 57.721539 46.867652 49.891666 10.307833 0.000000 0.000000 0.000000 -11.885072 -20.372035 44.076593 -15.547471 -0.263853 -6.507808 10.865890 30.015976 14.788800 3.075243 3.025990 -13.784660 0.000000 0.000000 0.000000 -18.017495 -8.141987 -26.389778 -49.376678 18.136335 -9.529113 -66.112256 -65.131168 32.295641 0.000000 0.000000 0.000000 16.845612 -12.730365 7.401309 65.322014 -7.950411 -6.301708 20.187355 70.677828 31.304427 0.000000 0.000000 0.000000 
0.972502 0.823494 -0.768406 -175.494150 54.873468 175.247078 11.443726 -15.291040 -39.182976 -16.927020 -11.146676 30.956698 12.645217 16.129130 19.765686 0.000000 0.000000 0.000000 15.215690 -14.392477 -40.728347 -60.345388 -10.405784 56.945296 44.674500 46.755377 13.315873 0.000000 0.000000 0.000000 -12.380944 -21.372835 45.274629 -14.311262 0.244734 -7.254539 9.820720 31.066544 16.829344 4.360747 2.969483 -14.449529 0.000000 0.000000 0.000000 -18.531543 -9.756890 -26.998057 -48.236320 17.176516 -8.275879 -82.293460 -70.292252 50.582845 0.000000 0.000000 0.000000 14.417280 -12.765511 5.792355 66.623342 -10.492142 -5.200748 21.791104 72.892680 34.897622 0.000000 0.000000 0.000000 
0.985670 0.814417 -0.810131 -176.048365 54.827412 175.340333 14.953385 -17.507802 -42.907721 -27.323758 -12.921170 35.249423 17.922098 23.605980 21.400994 0.000000 0.000000 0.000000 15.219522 -15.831391 -42.508852 -66.423038 -8.744528 58.321383 51.330472 50.093631 19.867597 0.000000 0.000000 0.000000 -9.696044 -20.973104 43.587717 -15.214379 -0.389321 -5.783230 9.510604 31.473748 14.499064 4.186321 2.930716 -14.464795 0.000000 0.000000 0.000000 -20.262421 -10.485914 -28.322193 -43.906075 18.765307 -6.719812 -91.909314 -70.250808 61.214070 0.000000 0.000000 0.000000 13.218844 -13.762810 3.932581 63.814413 -14.368807 -6.037769 34.228125 73.586607 46.679863 0.000000 0.000000 0.000000 
0.998571 0.805006 -0.852273 -176.899213 55.789724 175.334313 23.971467 -19.684545 -47.844256 -44.311401 -14.081468 38.291273 27.571076 36.175294 27.771329 0.000000 0.000000 0.000000 14.945825 -18.180481 -45.484261 -70.913782 -5.997465 61.226405 46.827855 50.466945 18.272771 0.000000 0.000000 0.000000 -7.571637 -20.185465 41.675227 -15.633236 -0.695476 -3.841899 9.334206 30.776292 13.084451 4.891302 3.266739 -15.542570 0.000000 0.000000 0.000000 -20.501538 -9.843764 -28.136168 -44.111316 19.441102 -7.113403 -87.030762 -69.417375 56.265036 0.000000 0.000000 0.000000 11.069003 -14.250342 1.666022 61.775611 -14.027531 -4.462157 38.988074 72.832697 50.971259 0.000000 0.000000 0.000000 
1.011108 0.798835 -0.894686 -178.187471 57.476020 174.035692 29.287694 -19.743502 -48.867273 -47.623969 -13.010024 40.448762 33.532613 40.385230 33.484741 0.000000 0.000000 0.000000 11.139994 -19.947496 -44.982284 -69.977284 -4.879521 64.452057 59.275386 51.859777 31.780820 0.000000 0.000000 0.000000 -8.756189 -20.275881 42.601454 -14.121533 0.567831 -7.923517 10.237921 30.243565 16.078761 4.500008 3.758295 -15.482695 0.000000 0.000000 0.000000 -21.935791 -10.173567 -30.863646 -40.891744 22.593153 -6.797892 -87.116506 -66.230556 55.534651 0.000000 0.000000 0.000000 7.668679 -12.933112 0.662775 63.452543 -13.529911 -2.398291 33.318401 73.414942 47.333801 0.000000 0.000000 0.000000 
1.022608 0.792005 -0.938918 -179.989496 59.112667 172.514288 33.384658 -18.753495 -46.768856 -41.205932 -11.319518 38.272876 37.579812 39.810194 32.598764 0.000000 0.000000 0.000000 8.090055 -21.774123 -44.973190 -71.333136 -3.109532 64.441912 60.404421 53.965570 32.414316 0.000000 0.000000 0.000000 -9.139309 -19.283671 42.327999 -13.583691 0.834424 -8.334662 9.358962 29.570857 15.129118 4.501909 4.542100 -16.855980 0.000000 0.000000 0.000000 -23.992462 -11.045630 -31.052911 -36.355767 23.036619 -5.149076 -82.843418 -64.783381 52.308639 0.000000 0.000000 0.000000 10.038111 -10.909811 3.469920 61.213596 -8.931033 -3.104908 31.523241 75.502116 46.982902 0.000000 0.000000 0.000000 
1.031911 0.790210 -0.985106 179.320870 60.617369 172.748618 35.329313 -17.912433 -43.754707 -30.089810 -9.543701 35.254452 38.486531 35.050132 32.301228 0.000000 0.000000 0.000000 5.300626 -22.629488 -43.762110 -69.897213 -2.881269 63.818783 54.179522 54.476028 24.630118 0.000000 0.000000 0.000000 -8.567338 -18.388304 41.348047 -12.868312 0.899637 -7.495670 8.385305 28.456372 14.012102 3.545890 5.385648 -18.226271 0.000000 0.000000 0.000000 -23.560811 -8.726440 -30.388513 -38.031749 24.675608 -6.688952 -77.606241 -64.012128 46.296642 0.000000 0.000000 0.000000 11.361112 -9.850739 4.951221 60.897815 -5.341121 -2.795839 24.551854 73.700688 39.030928 0.000000 0.000000 0.000000 
1.039182 0.790066 -1.034760 179.775671 60.061567 174.558460 36.544165 -17.699897 -41.024569 -20.630477 -8.276138 32.337036 37.960602 29.110038 32.220611 0.000000 0.000000 0.000000 -0.712454 -26.548081 -41.061040 -63.466694 -4.194276 63.964722 55.860647 54.940501 22.736832 0.000000 0.000000 0.000000 -5.747306 -17.411187 38.779370 -12.131140 0.633082 -7.991302 7.910241 26.660775 16.078013 3.656769 6.473992 -21.159429 0.000000 0.000000 0.000000 -23.900614 -9.345402 -32.276516 -38.551179 26.027492 -6.797160 -75.789704 -61.311776 42.577891 0.000000 0.000000 0.000000 10.373310 -9.392981 5.131079 63.537683 -2.600563 -0.144817 18.043544 71.673544 32.236931 0.000000 0.000000 0.000000 
1.043947 0.792844 -1.088684 179.674215 61.539452 175.516854 37.264874 -17.281958 -38.779820 -19.434409 -7.730816 31.689200 36.765674 27.348424 35.456665 0.000000 0.000000 0.000000 -5.973129 -28.575859 -37.771691 -55.774773 -5.564504 61.391735 51.889416 52.094018 17.895795 0.000000 0.000000 0.000000 -5.545905 -16.424617 37.920324 -12.290370 0.749037 -8.353026 8.092558 25.603494 16.053238 4.674388 7.181926 -23.642429 0.000000 0.000000 0.000000 -23.432290 -8.980274 -31.408891 -41.120469 26.124781 -7.924191 -71.671410 -58.261059 35.720557 0.000000 0.000000 0.000000 12.302956 -9.050968 6.656612 61.432150 1.688209 0.007243 20.955158 66.224405 29.818015 0.000000 0.000000 0.000000 
1.047608 0.794351 -1.148171 -177.453675 62.795061 -179.722374 38.548396 -17.455583 -38.679459 -23.397138 -7.736922 32.636915 36.231653 28.752774 37.067415 0.000000 0.000000 0.000000 -10.302241 -29.269556 -34.115674 -47.764782 -7.076880 56.913339 45.364075 46.703173 11.454471 0.000000 0.000000 0.000000 -2.575527 -14.627552 34.519690 -11.692082 0.494336 -7.497903 7.237003 24.789029 16.143598 5.559463 7.641378 -26.551272 0.000000 0.000000 0.000000 -23.207636 -9.866930 -31.467022 -41.527921 26.859314 -8.255158 -71.269577 -54.785243 32.190947 0.000000 0.000000 0.000000 13.933724 -8.304397 8.785764 59.656102 3.762412 -0.143341 16.749599 62.854311 23.677668 0.000000 0.000000 0.000000 
1.050231 0.799930 -1.213330 -176.265225 64.699211 -178.124253 37.195769 -16.552157 -36.564157 -29.542082 -8.284549 34.298330 38.524989 30.739151 41.690698 0.000000 0.000000 0.000000 -12.442713 -26.809676 -30.403586 -43.205278 -7.256517 49.907382 40.427748 39.790985 9.055838 0.000000 0.000000 0.000000 -2.142504 -12.447470 31.965578 -11.299854 0.564981 -7.730496 7.711152 24.061181 17.615876 7.682165 7.417726 -27.009721 0.000000 0.000000 0.000000 -22.271133 -9.769986 -31.641625 -43.849965 27.886729 -9.621907 -67.853773 -53.135727 28.021303 0.000000 0.000000 0.000000 15.761354 -8.839235 10.158701 57.004803 5.772601 -0.665937 18.011858 59.084826 21.559606 0.000000 0.000000 0.000000 
1.052929 0.812405 -1.282822 -174.546306 64.491877 -176.258031 33.954409 -15.371047 -34.539971 -33.027850 -9.168032 34.447012 43.065544 32.121052 42.481477 0.000000 0.000000 0.000000 -15.457754 -25.111032 -25.111065 -38.660351 -7.459887 43.337968 41.430184 33.703575 13.866621 0.000000 0.000000 0.000000 -1.458913 -10.057931 28.580409 -8.961310 0.208495 -6.739769 7.247330 22.384865 18.405704 8.268402 7.293754 -27.111355 0.000000 0.000000 0.000000 -21.308738 -10.444789 -31.408421 -44.695807 28.647747 -10.416541 -64.866086 -51.670198 24.801839 0.000000 0.000000 0.000000 18.636796 -9.434482 12.651656 53.599775 6.714291 -2.356477 18.609231 58.216810 20.429878 0.000000 0.000000 0.000000 
1.055606 0.833114 -1.353612 -173.786018 64.958475 -175.526517 29.940968 -13.562846 -31.658328 -37.346226 -10.299768 33.037464 51.417184 33.580004 48.036481 0.000000 0.000000 0.000000 -17.612563 -23.912503 -21.431056 -35.556134 -6.775850 38.240119 41.602925 26.983700 23.446682 0.000000 0.000000 0.000000 0.216049 -7.208552 23.687552 -9.425699 -0.784836 -4.077259 7.543783 22.137365 17.479622 8.516292 6.192021 -23.888663 0.000000 0.000000 0.000000 -18.569956 -10.198434 -29.425620 -48.100027 26.351938 -11.982002 -62.082817 -51.060964 21.192335 0.000000 0.000000 0.000000 16.774950 -9.476047 11.365771 55.643909 2.474313 -2.326142 20.895893 57.157491 21.028737 0.000000 0.000000 0.000000 
1.058816 0.859617 -1.420736 -174.836264 62.822899 -176.304616 21.541887 -10.650292 -28.334822 -32.224913 -11.151477 32.680865 51.541432 29.414635 44.769236 0.000000 0.000000 0.000000 -19.028333 -25.347247 -20.014523 -37.147825 -6.834025 36.977271 37.130361 21.140155 31.357848 0.000000 0.000000 0.000000 0.105786 -5.372569 20.561809 -7.111793 -1.514674 -3.727928 7.339582 18.725523 17.342978 8.651108 5.745746 -22.605700 0.000000 0.000000 0.000000 -17.502649 -7.881798 -30.393983 -49.769234 26.660696 -13.530508 -59.434874 -47.155678 17.531463 0.000000 0.000000 0.000000 15.079297 -11.626788 8.611195 56.675510 -1.098654 -2.218759 24.540436 54.931879 22.453780 0.000000 0.000000 0.000000 
1.063068 0.886444 -1.479200 -175.234594 60.289829 -177.871422 13.511100 -7.113728 -23.144782 -24.411342 -11.022217 30.853426 51.291924 23.349394 38.805391 0.000000 0.000000 0.000000 -16.757989 -23.451006 -20.066608 -42.529480 -8.389242 40.033792 34.280773 20.393567 31.384848 0.000000 0.000000 0.000000 -0.020430 -4.802481 19.247243 -4.219833 -1.181624 -5.564163 5.779012 14.152774 18.422369 8.496644 5.066059 -20.534929 0.000000 0.000000 0.000000 -15.393270 -6.021822 -29.235257 -50.857149 24.919250 -14.699905 -58.971583 -45.042903 15.863908 0.000000 0.000000 0.000000 14.056131 -12.601948 7.149710 58.596000 -4.997825 -2.437044 28.928104 53.813177 24.383283 0.000000 0.000000 0.000000 
